<svg width="21" height="21" viewBox="0 0 21 21" fill="none" xmlns="http://www.w3.org/2000/svg">
<g clip-path="url(#clip0_59_351)">
<path d="M3.5 7H17.5M3.5 7V14.7002C3.5 15.6803 3.5 16.1701 3.69074 16.5444C3.85852 16.8737 4.12604 17.1417 4.45532 17.3094C4.8293 17.5 5.31912 17.5 6.2973 17.5H14.7027C15.6809 17.5 16.17 17.5 16.544 17.3094C16.8733 17.1417 17.1417 16.8737 17.3094 16.5444C17.5 16.1704 17.5 15.6813 17.5 14.7031V7M3.5 7V6.30017C3.5 5.32008 3.5 4.82967 3.69074 4.45532C3.85852 4.12604 4.12604 3.85852 4.45532 3.69074C4.82967 3.5 5.32008 3.5 6.30017 3.5H7M17.5 7V6.2973C17.5 5.31912 17.5 4.8293 17.3094 4.45532C17.1417 4.12604 16.8733 3.85852 16.544 3.69074C16.1696 3.5 15.6803 3.5 14.7002 3.5H14M14 1.75V3.5M14 3.5H7M7 1.75V3.5" stroke="white" stroke-linecap="round" stroke-linejoin="round"/>
</g>
<defs>
<clipPath id="clip0_59_351">
<rect width="21" height="21" fill="white"/>
</clipPath>
</defs>
</svg>
